<?xml version="1.0" encoding="UTF-8" standalone="no"?>
<svg
   viewBox="0 0 1111.3383 1168.5715"
   version="1.1"
   id="svg7"
   sodipodi:docname="RFID.svg"
   inkscape:version="1.3 (0e150ed6c4, 2023-07-21)"
   xmlns:inkscape="http://www.inkscape.org/namespaces/inkscape"
   xmlns:sodipodi="http://sodipodi.sourceforge.net/DTD/sodipodi-0.dtd"
   xmlns="http://www.w3.org/2000/svg"
   xmlns:svg="http://www.w3.org/2000/svg">
  <defs
     id="defs7" />
  <sodipodi:namedview
     id="namedview7"
     pagecolor="#ffffff"
     bordercolor="#000000"
     borderopacity="0.25"
     inkscape:showpageshadow="2"
     inkscape:pageopacity="0.0"
     inkscape:pagecheckerboard="0"
     inkscape:deskcolor="#d1d1d1"
     inkscape:zoom="0.53975237"
     inkscape:cx="758.68125"
     inkscape:cy="748.49139"
     inkscape:window-width="1920"
     inkscape:window-height="1130"
     inkscape:window-x="-6"
     inkscape:window-y="-6"
     inkscape:window-maximized="1"
     inkscape:current-layer="svg7" />
  <path
     id="path10"
     style="color:#000000;display:inline;fill:#000000;stroke-linecap:round;stroke-linejoin:round;-inkscape-stroke:none"
     d="M 249.16992 117.60547 C 218.30621 138.01617 189.31579 161.56315 162.76367 188.11523 C 58.570366 292.30849 0.015625 433.67186 0.015625 581.02344 C 0.015625 728.375 58.570366 869.73643 162.76367 973.92969 C 190.17464 1001.3406 220.21292 1025.4989 252.20117 1046.3574 L 300.54883 972.9668 C 273.49697 955.35819 248.09412 934.95152 224.91797 911.77539 C 137.18523 824.0427 87.916016 705.09627 87.916016 581.02344 C 87.916016 456.95058 137.18523 338.00222 224.91797 250.26953 C 247.23528 227.95223 271.58998 208.15573 297.51758 190.99414 L 249.16992 117.60547 z M 862.35938 117.7207 L 814.13867 191.19336 C 839.94985 208.30761 864.19567 228.04138 886.42383 250.26953 C 974.15657 338.00222 1023.4258 456.95058 1023.4258 581.02344 C 1023.4258 705.09627 974.15657 824.0427 886.42383 911.77539 C 863.33916 934.86004 838.04675 955.19995 811.11523 972.76172 L 859.33594 1046.2344 C 891.25214 1025.4041 921.22399 1001.2857 948.58008 973.92969 C 1052.7734 869.73643 1111.3262 728.375 1111.3262 581.02344 C 1111.3262 433.67186 1052.7734 292.30849 948.58008 188.11523 C 922.08026 161.61544 893.15483 138.1037 862.35938 117.7207 z " />
  <path
     id="path12"
     style="color:#000000;fill:#000000;stroke-linecap:round;stroke-linejoin:round;-inkscape-stroke:none"
     d="M 346.48438 265.32422 C 244.2955 333.26377 176.76953 449.39394 176.76953 581.02148 C 176.76953 713.93106 245.64029 831.00684 349.50391 898.65625 L 382.29883 848.875 C 294.62695 792.11261 236.70703 693.52261 236.70703 581.02148 C 236.70703 469.80877 293.28611 372.1589 379.27539 315.10156 L 346.48438 265.32422 z M 765.29492 265.61719 L 732.58984 315.44922 C 818.27796 372.55633 874.61523 470.03963 874.61523 581.02148 C 874.61523 693.28804 816.94052 791.70515 729.57617 848.52344 L 762.2832 898.35938 C 865.88912 830.66387 934.55273 713.73455 934.55273 581.02148 C 934.55273 449.58734 867.23119 333.5984 765.29492 265.61719 z " />
  <path
     id="path14"
     style="color:#000000;fill:#000000;stroke-linecap:round;stroke-linejoin:round;-inkscape-stroke:none"
     d="M 426.12695 386.21875 C 363.19212 428.21818 321.63754 499.855 321.65234 581.01953 L 321.65234 581.02344 L 321.65234 581.02734 C 321.63733 663.47327 364.53483 736.05814 429.14453 777.76367 L 449.39844 747.01758 C 394.78692 712.03815 358.65488 650.8707 358.66992 581.02734 A 18.510701 18.510701 0 0 0 358.66992 581.02539 A 18.510701 18.510701 0 0 0 358.66992 581.02344 A 18.510701 18.510701 0 0 0 358.66992 581.02148 A 18.510701 18.510701 0 0 0 358.66992 581.01953 C 358.65515 512.4633 393.44946 452.2395 446.37891 416.96094 L 426.12695 386.21875 z M 685.86133 386.65039 L 665.66211 417.42773 C 718.18787 452.77119 752.65923 512.77333 752.64453 581.01953 A 18.510701 18.510701 0 0 0 752.64453 581.02734 C 752.65952 650.5578 716.85121 711.4905 662.65039 746.54688 L 682.85156 777.32812 C 747.08329 735.55233 789.67845 663.18217 789.66211 581.02344 C 789.6782 500.1427 748.42494 428.71047 685.86133 386.65039 z " />
  <path
     id="path17"
     style="color:#000000;fill:#000000;stroke-linecap:round;stroke-linejoin:round;-inkscape-stroke:none"
     d="M 484.29688 474.52148 C 450.02755 497.57387 427.43437 536.71154 427.44727 581.02344 C 427.43605 626.61526 451.3706 666.70951 487.31641 689.46094 L 498.41602 672.61133 C 467.94476 653.54956 447.71921 619.71195 447.73047 581.02344 A 10.143414 10.143414 0 0 0 447.73047 581.02148 A 10.143414 10.143414 0 0 0 447.73047 581.01953 A 10.143414 10.143414 0 0 0 447.73047 581.01758 C 447.71958 543.61746 466.6093 510.73555 495.39453 491.36719 L 484.29688 474.52148 z M 627.83789 475.05859 L 616.76562 491.93164 C 645.09049 511.36947 663.62992 543.97219 663.61914 581.01758 A 10.143414 10.143414 0 0 0 663.61914 581.02344 C 663.6303 619.35419 643.77363 652.91844 613.77344 672.07422 L 624.8418 688.94141 C 660.33863 666.10191 683.91678 626.27056 683.9043 581.01953 C 683.91574 537.04902 661.66506 498.17778 627.83789 475.05859 z " />
</svg>
